<svg xmlns="http://www.w3.org/2000/svg" class="graphdiagram" viewBox="-1479.6103112275373 -1115.0546237765602 3528.493807358258 1709.1141879391562"><g class="layer relationships"><g class="related-pair"><g class="relationship" transform="translate(-609.295654296875,280.4852294921875) rotate(17.76362112698271)"><path class="relationship" d="M 125.25962520157903 4 L 237.71981702620621 4 L 237.71981702620621 16 L 269.7198170262062 0 L 237.71981702620621 -16 L 237.71981702620621 -4 L 125.25962520157903 -4 Z" fill="rgb(0, 0, 0)" stroke="rgb(51, 51, 51)" stroke-width="0px"/></g></g><g class="related-pair"><g class="relationship" transform="translate(-565.5807013511658,515.4088439941406) rotate(-15.251926560588526)"><path class="relationship" d="M 89.65072016845528 4 L 186.76632131671383 4 L 186.76632131671383 16 L 218.76632131671383 0 L 186.76632131671383 -16 L 186.76632131671383 -4 L 89.65072016845528 -4 Z" fill="rgb(0, 0, 0)" stroke="rgb(51, 51, 51)" stroke-width="0px"/></g></g><g class="related-pair"><g class="relationship" transform="translate(-586.938957452774,-624.2646627426147) rotate(-90)"><path class="relationship" d="M 108.83177790126219 4 L 269.13060171019487 4 L 269.13060171019487 16 L 301.13060171019487 0 L 269.13060171019487 -16 L 269.13060171019487 -4 L 108.83177790126219 -4 Z" fill="rgb(0, 0, 0)" stroke="rgb(51, 51, 51)" stroke-width="0px"/></g></g><g class="related-pair"><g class="relationship" transform="translate(-193.05633544921875,413.8335876464844) rotate(-90)"><path class="relationship" d="M 167.35792797713694 4 L 250.2881126759571 4 L 250.2881126759571 16 L 282.2881126759571 0 L 250.2881126759571 -16 L 250.2881126759571 -4 L 167.35792797713694 -4 Z" fill="rgb(0, 0, 0)" stroke="rgb(51, 51, 51)" stroke-width="0px"/></g></g><g class="related-pair"><g class="relationship" transform="translate(-586.938957452774,-624.2646627426147) rotate(90)"><path class="relationship" d="M 108.83177790126219 4 L 224.8485270923045 4 L 224.8485270923045 16 L 256.8485270923045 0 L 224.8485270923045 -16 L 224.8485270923045 -4 L 108.83177790126219 -4 Z" fill="rgb(0, 0, 0)" stroke="rgb(51, 51, 51)" stroke-width="0px"/></g></g><g class="related-pair"><g class="relationship" transform="translate(-193.05633544921875,42.80891680717468) rotate(-142.8534377117685)"><path class="relationship" d="M 88.73655816335261 4 L 350.3181334632053 4 L 350.3181334632053 16 L 382.3181334632053 0 L 350.3181334632053 -16 L 350.3181334632053 -4 L 88.73655816335261 -4 Z" fill="rgb(0, 0, 0)" stroke="rgb(51, 51, 51)" stroke-width="0px"/></g></g><g class="related-pair"><g class="relationship" transform="translate(-193.05633544921875,42.80891680717468) rotate(-51.05123924526432)"><path class="relationship" d="M 88.73655816335261 4 L 239.85390210463487 4 L 239.85390210463487 16 L 271.85390210463487 0 L 239.85390210463487 -16 L 239.85390210463487 -4 L 88.73655816335261 -4 Z" fill="rgb(0, 0, 0)" stroke="rgb(51, 51, 51)" stroke-width="0px"/></g></g><g class="related-pair"><g class="relationship" transform="translate(48.137309551239014,-653.416090965271) rotate(90)"><path class="relationship" d="M 108.83177790126219 4 L 253.99995531496074 4 L 253.99995531496074 16 L 285.99995531496074 0 L 253.99995531496074 -16 L 253.99995531496074 -4 L 108.83177790126219 -4 Z" fill="rgb(0, 0, 0)" stroke="rgb(51, 51, 51)" stroke-width="0px"/></g></g><g class="related-pair"><g class="relationship" transform="translate(48.137309551239014,-653.416090965271) rotate(-90)"><path class="relationship" d="M 108.83177790126219 4 L 239.97917348753862 4 L 239.97917348753862 16 L 271.9791734875386 0 L 239.97917348753862 -16 L 239.97917348753862 -4 L 108.83177790126219 -4 Z" fill="rgb(0, 0, 0)" stroke="rgb(51, 51, 51)" stroke-width="0px"/></g></g><g class="related-pair"><g class="relationship" transform="translate(48.137309551239014,-255.58566284179688) rotate(180)"><path class="relationship" d="M 111.83047280851338 4 L 491.2457941954997 4 L 491.2457941954997 16 L 523.2457941954997 0 L 491.2457941954997 -16 L 491.2457941954997 -4 L 111.83047280851338 -4 Z" fill="rgb(0, 0, 0)" stroke="rgb(51, 51, 51)" stroke-width="0px"/><text class="type" text-anchor="middle" baseline-shift="30%" alignment-baseline="alphabetic" transform="rotate(180)" x="-301.53813350200653" y="0" font-size="50px" font-family="'Gill Sans', 'Gill Sans MT', Calibri, sans-serif">after</text></g></g><g class="related-pair"><g class="relationship" transform="translate(-193.05633544921875,42.80891680717468) rotate(180)"><path class="relationship" d="M 88.73655816335261 4 L 557.0458151364496 4 L 557.0458151364496 16 L 589.0458151364496 0 L 557.0458151364496 -16 L 557.0458151364496 -4 L 88.73655816335261 -4 Z" fill="rgb(0, 0, 0)" stroke="rgb(51, 51, 51)" stroke-width="0px"/></g></g><g class="related-pair"><g class="relationship" transform="translate(-193.05633544921875,413.8335876464844) rotate(-19.804943200713858)"><path class="relationship" d="M 167.35792797713694 4 L 1045.912765872679 4 L 1045.912765872679 16 L 1077.912765872679 0 L 1045.912765872679 -16 L 1045.912765872679 -4 L 167.35792797713694 -4 Z" fill="rgb(0, 0, 0)" stroke="rgb(51, 51, 51)" stroke-width="0px"/></g></g><g class="related-pair"><g class="relationship" transform="translate(904.5874786376953,18.5505211353302) rotate(0)"><path class="relationship" d="M 88.73655816335261 4 L 423.49386741588376 4 L 423.49386741588376 16 L 455.49386741588376 0 L 423.49386741588376 -16 L 423.49386741588376 -4 L 88.73655816335261 -4 Z" fill="rgb(0, 0, 0)" stroke="rgb(51, 51, 51)" stroke-width="0px"/></g></g><g class="related-pair"><g class="relationship" transform="translate(-586.938957452774,-255.58566284179688) rotate(136.42245621178577)"><path class="relationship" d="M 111.83047280851338 4 L 282.4446849640171 4 L 282.4446849640171 16 L 314.4446849640171 0 L 282.4446849640171 -16 L 282.4446849640171 -4 L 111.83047280851338 -4 Z" fill="rgb(0, 0, 0)" stroke="rgb(51, 51, 51)" stroke-width="0px"/></g></g><g class="related-pair"><g class="relationship" transform="translate(48.137309551239014,-255.58566284179688) rotate(162.5395134050956)"><path class="relationship" d="M 111.83047280851338 4 L 844.0614544513157 4 L 844.0614544513157 16 L 876.0614544513157 0 L 844.0614544513157 -16 L 844.0614544513157 -4 L 111.83047280851338 -4 Z" fill="rgb(0, 0, 0)" stroke="rgb(51, 51, 51)" stroke-width="0px"/></g></g><g class="related-pair"><g class="relationship" transform="translate(-193.05633544921875,42.80891680717468) rotate(-24.57871989656434)"><path class="relationship" d="M 88.73655816335261 4 L 573.5623724185483 4 L 573.5623724185483 16 L 605.5623724185483 0 L 573.5623724185483 -16 L 573.5623724185483 -4 L 88.73655816335261 -4 Z" fill="rgb(0, 0, 0)" stroke="rgb(51, 51, 51)" stroke-width="0px"/></g></g><g class="related-pair"><g class="relationship" transform="translate(459.3340148925781,-653.416090965271) rotate(90)"><path class="relationship" d="M 108.83177790126219 4 L 253.99995531496074 4 L 253.99995531496074 16 L 285.99995531496074 0 L 253.99995531496074 -16 L 253.99995531496074 -4 L 108.83177790126219 -4 Z" fill="rgb(0, 0, 0)" stroke="rgb(51, 51, 51)" stroke-width="0px"/></g></g><g class="related-pair"><g class="relationship" transform="translate(904.5874786376953,18.5505211353302) rotate(-90)"><path class="relationship" d="M 88.73655816335261 4 L 130.3057111686137 4 L 130.3057111686137 16 L 162.3057111686137 0 L 130.3057111686137 -16 L 130.3057111686137 -4 L 88.73655816335261 -4 Z" fill="rgb(0, 0, 0)" stroke="rgb(51, 51, 51)" stroke-width="0px"/></g></g><g class="related-pair"><g class="relationship" transform="translate(904.5874786376953,18.5505211353302) rotate(-35.08043075742343)"><path class="relationship" d="M 88.73655816335261 4 L 333.1555836309061 4 L 333.1555836309061 16 L 365.1555836309061 0 L 333.1555836309061 -16 L 333.1555836309061 -4 L 88.73655816335261 -4 Z" fill="rgb(0, 0, 0)" stroke="rgb(51, 51, 51)" stroke-width="0px"/></g></g><g class="related-pair"><g class="relationship" transform="translate(904.5874786376953,-624.2646627426147) rotate(90)"><path class="relationship" d="M 108.83177790126219 4 L 224.8485270923045 4 L 224.8485270923045 16 L 256.8485270923045 0 L 224.8485270923045 -16 L 224.8485270923045 -4 L 108.83177790126219 -4 Z" fill="rgb(0, 0, 0)" stroke="rgb(51, 51, 51)" stroke-width="0px"/></g></g><g class="related-pair"><g class="relationship" transform="translate(1294.9271392822266,-589.4621114730835) rotate(90)"><path class="relationship" d="M 108.83177790126219 4 L 190.04597582277324 4 L 190.04597582277324 16 L 222.04597582277324 0 L 190.04597582277324 -16 L 190.04597582277324 -4 L 108.83177790126219 -4 Z" fill="rgb(0, 0, 0)" stroke="rgb(51, 51, 51)" stroke-width="0px"/></g></g><g class="related-pair"><g class="relationship" transform="translate(904.5874786376953,-624.2646627426147) rotate(-90)"><path class="relationship" d="M 108.83177790126219 4 L 269.13060171019487 4 L 269.13060171019487 16 L 301.13060171019487 0 L 269.13060171019487 -16 L 269.13060171019487 -4 L 108.83177790126219 -4 Z" fill="rgb(0, 0, 0)" stroke="rgb(51, 51, 51)" stroke-width="0px"/></g></g><g class="related-pair"><g class="relationship" transform="translate(1294.9271392822266,-589.4621114730835) rotate(-90)"><path class="relationship" d="M 108.83177790126219 4 L 303.9331529797261 4 L 303.9331529797261 16 L 335.9331529797261 0 L 303.9331529797261 -16 L 303.9331529797261 -4 L 108.83177790126219 -4 Z" fill="rgb(0, 0, 0)" stroke="rgb(51, 51, 51)" stroke-width="0px"/></g></g><g class="related-pair"><g class="relationship" transform="translate(904.5874786376953,-255.58566284179688) rotate(25.701731670439575)"><path class="relationship" d="M 111.83047280851338 4 L 486.03206581868176 4 L 486.03206581868176 16 L 518.0320658186818 0 L 486.03206581868176 -16 L 486.03206581868176 -4 L 111.83047280851338 -4 Z" fill="rgb(0, 0, 0)" stroke="rgb(51, 51, 51)" stroke-width="0px"/></g></g><g class="related-pair"><g class="relationship" transform="translate(1294.9271392822266,-255.58566284179688) rotate(56.82349235980999)"><path class="relationship" d="M 111.83047280851338 4 L 181.45172755113848 4 L 181.45172755113848 16 L 213.45172755113848 0 L 181.45172755113848 -16 L 181.45172755113848 -4 L 111.83047280851338 -4 Z" fill="rgb(0, 0, 0)" stroke="rgb(51, 51, 51)" stroke-width="0px"/></g></g><g class="related-pair"><g class="relationship" transform="translate(459.3340148925781,-255.58566284179688) rotate(180)"><path class="relationship" d="M 111.83047280851338 4 L 267.36623253282573 4 L 267.36623253282573 16 L 299.36623253282573 0 L 267.36623253282573 -16 L 267.36623253282573 -4 L 111.83047280851338 -4 Z" fill="rgb(0, 0, 0)" stroke="rgb(51, 51, 51)" stroke-width="0px"/><text class="type" text-anchor="middle" baseline-shift="30%" alignment-baseline="alphabetic" transform="rotate(180)" x="-189.59835267066956" y="0" font-size="50px" font-family="'Gill Sans', 'Gill Sans MT', Calibri, sans-serif">after</text></g></g><g class="related-pair"><g class="relationship" transform="translate(459.3340148925781,-960.1981067657471) rotate(162.19940712996598)"><path class="relationship" d="M 165.54779891199277 4 L 958.0487485772177 4 L 958.0487485772177 16 L 990.0487485772177 0 L 958.0487485772177 -16 L 958.0487485772177 -4 L 165.54779891199277 -4 Z" fill="rgb(0, 0, 0)" stroke="rgb(51, 51, 51)" stroke-width="0px"/></g></g><g class="related-pair"><g class="relationship" transform="translate(459.3340148925781,-960.1981067657471) rotate(143.27444090868934)"><path class="relationship" d="M 165.54779891199277 4 L 372.1964237623263 4 L 372.1964237623263 16 L 404.1964237623263 0 L 372.1964237623263 -16 L 372.1964237623263 -4 L 165.54779891199277 -4 Z" fill="rgb(0, 0, 0)" stroke="rgb(51, 51, 51)" stroke-width="0px"/></g></g><g class="related-pair"><g class="relationship" transform="translate(459.3340148925781,-960.1981067657471) rotate(37.03370922501039)"><path class="relationship" d="M 165.54779891199277 4 L 416.93333914198513 4 L 416.93333914198513 16 L 448.93333914198513 0 L 416.93333914198513 -16 L 416.93333914198513 -4 L 165.54779891199277 -4 Z" fill="rgb(0, 0, 0)" stroke="rgb(51, 51, 51)" stroke-width="0px"/></g></g><g class="related-pair"><g class="relationship" transform="translate(459.3340148925781,-960.1981067657471) rotate(23.9259059787771)"><path class="relationship" d="M 165.54779891199277 4 L 773.3132038893159 4 L 773.3132038893159 16 L 805.3132038893159 0 L 773.3132038893159 -16 L 773.3132038893159 -4 L 165.54779891199277 -4 Z" fill="rgb(0, 0, 0)" stroke="rgb(51, 51, 51)" stroke-width="0px"/></g></g></g><g class="layer nodes"><circle class="node node-id-0" r="152.35792797713694" fill="rgb(255, 255, 255)" stroke="rgb(0, 0, 0)" stroke-width="8px" cx="-193.05633544921875" cy="413.8335876464844"/><circle class="node node-id-1" r="73.73655816335261" fill="rgb(255, 255, 255)" stroke="rgb(0, 0, 0)" stroke-width="8px" cx="-193.05633544921875" cy="42.80891680717468"/><circle class="node node-id-2" r="110.25962520157903" fill="rgb(255, 255, 255)" stroke="rgb(0, 0, 0)" stroke-width="8px" cx="-609.295654296875" cy="280.4852294921875"/><circle class="node node-id-3" r="74.65072016845528" fill="rgb(255, 255, 255)" stroke="rgb(0, 0, 0)" stroke-width="8px" cx="-565.5807013511658" cy="515.4088439941406"/><circle class="node node-id-4" r="93.83177790126219" fill="rgb(255, 255, 255)" stroke="rgb(0, 0, 0)" stroke-width="8px" cx="-586.938957452774" cy="-624.2646627426147"/><circle class="node node-id-5" r="85.32967966187545" fill="rgb(255, 255, 255)" stroke="rgb(0, 0, 0)" stroke-width="8px" cx="-586.938957452774" cy="-1025.724944114685"/><circle class="node node-id-6" r="96.83047280851338" fill="rgb(255, 255, 255)" stroke="rgb(0, 0, 0)" stroke-width="8px" cx="-586.938957452774" cy="-255.58566284179688"/><circle class="node node-id-7" r="96.83047280851338" fill="rgb(255, 255, 255)" stroke="rgb(0, 0, 0)" stroke-width="8px" cx="48.137309551239014" cy="-255.58566284179688"/><circle class="node node-id-8" r="93.83177790126219" fill="rgb(255, 255, 255)" stroke="rgb(0, 0, 0)" stroke-width="8px" cx="48.137309551239014" cy="-653.416090965271"/><circle class="node node-id-9" r="85.32967966187545" fill="rgb(255, 255, 255)" stroke="rgb(0, 0, 0)" stroke-width="8px" cx="48.137309551239014" cy="-1025.724944114685"/><circle class="node node-id-10" r="103.42800078151909" fill="rgb(255, 255, 255)" stroke="rgb(0, 0, 0)" stroke-width="8px" cx="-900.5301513671875" cy="42.80891680717468"/><circle class="node node-id-11" r="73.73655816335261" fill="rgb(255, 255, 255)" stroke="rgb(0, 0, 0)" stroke-width="8px" cx="904.5874786376953" cy="18.5505211353302"/><circle class="node node-id-12" r="99.07499549915534" fill="rgb(255, 255, 255)" stroke="rgb(0, 0, 0)" stroke-width="8px" cx="1474.1563415527344" cy="18.5505211353302"/><circle class="node node-id-13" r="96.83047280851338" fill="rgb(255, 255, 255)" stroke="rgb(0, 0, 0)" stroke-width="8px" cx="459.3340148925781" cy="-255.58566284179688"/><circle class="node node-id-14" r="93.83177790126219" fill="rgb(255, 255, 255)" stroke="rgb(0, 0, 0)" stroke-width="8px" cx="459.3340148925781" cy="-653.416090965271"/><circle class="node node-id-15" r="96.83047280851338" fill="rgb(255, 255, 255)" stroke="rgb(0, 0, 0)" stroke-width="8px" cx="904.5874786376953" cy="-255.58566284179688"/><circle class="node node-id-16" r="96.83047280851338" fill="rgb(255, 255, 255)" stroke="rgb(0, 0, 0)" stroke-width="8px" cx="1294.9271392822266" cy="-255.58566284179688"/><circle class="node node-id-17" r="93.83177790126219" fill="rgb(255, 255, 255)" stroke="rgb(0, 0, 0)" stroke-width="8px" cx="904.5874786376953" cy="-624.2646627426147"/><circle class="node node-id-18" r="93.83177790126219" fill="rgb(255, 255, 255)" stroke="rgb(0, 0, 0)" stroke-width="8px" cx="1294.9271392822266" cy="-589.4621114730835"/><circle class="node node-id-19" r="85.32967966187545" fill="rgb(255, 255, 255)" stroke="rgb(0, 0, 0)" stroke-width="8px" cx="904.5874786376953" cy="-1025.724944114685"/><circle class="node node-id-20" r="85.32967966187545" fill="rgb(255, 255, 255)" stroke="rgb(0, 0, 0)" stroke-width="8px" cx="1294.9271392822266" cy="-1025.724944114685"/><circle class="node node-id-21" r="150.54779891199277" fill="rgb(255, 255, 255)" stroke="rgb(0, 0, 0)" stroke-width="8px" cx="459.3340148925781" cy="-960.1981067657471"/><g class="caption"><text class="caption node" text-anchor="middle" alignment-baseline="central" x="-193.05633544921875" y="413.8335876464844" font-size="50px" font-family="'Gill Sans', 'Gill Sans MT', Calibri, sans-serif">Organization</text></g><g class="caption"><text class="caption node" text-anchor="middle" alignment-baseline="central" x="-193.05633544921875" y="42.80891680717468" font-size="50px" font-family="'Gill Sans', 'Gill Sans MT', Calibri, sans-serif">Race</text></g><g class="caption"><text class="caption node" text-anchor="middle" alignment-baseline="central" x="-609.295654296875" y="280.4852294921875" font-size="50px" font-family="'Gill Sans', 'Gill Sans MT', Calibri, sans-serif">Location</text></g><g class="caption"><text class="caption node" text-anchor="middle" alignment-baseline="central" x="-565.5807013511658" y="515.4088439941406" font-size="50px" font-family="'Gill Sans', 'Gill Sans MT', Calibri, sans-serif">Date</text></g><g class="caption"><text class="caption node" text-anchor="middle" alignment-baseline="central" x="-586.938957452774" y="-624.2646627426147" font-size="50px" font-family="'Gill Sans', 'Gill Sans MT', Calibri, sans-serif">Person</text></g><g class="caption"><text class="caption node" text-anchor="middle" alignment-baseline="central" x="-586.938957452774" y="-1025.724944114685" font-size="50px" font-family="'Gill Sans', 'Gill Sans MT', Calibri, sans-serif">Name</text></g><g class="caption"><text class="caption node" text-anchor="middle" alignment-baseline="central" x="-586.938957452774" y="-255.58566284179688" font-size="50px" font-family="'Gill Sans', 'Gill Sans MT', Calibri, sans-serif">finisher</text></g><g class="caption"><text class="caption node" text-anchor="middle" alignment-baseline="central" x="48.137309551239014" y="-255.58566284179688" font-size="50px" font-family="'Gill Sans', 'Gill Sans MT', Calibri, sans-serif">finisher</text></g><g class="caption"><text class="caption node" text-anchor="middle" alignment-baseline="central" x="48.137309551239014" y="-653.416090965271" font-size="50px" font-family="'Gill Sans', 'Gill Sans MT', Calibri, sans-serif">Person</text></g><g class="caption"><text class="caption node" text-anchor="middle" alignment-baseline="central" x="48.137309551239014" y="-1025.724944114685" font-size="50px" font-family="'Gill Sans', 'Gill Sans MT', Calibri, sans-serif">Name</text></g><g class="caption"><text class="caption node" text-anchor="middle" alignment-baseline="central" x="-900.5301513671875" y="17.808916807174683" font-size="50px" font-family="'Gill Sans', 'Gill Sans MT', Calibri, sans-serif">Main</text><text class="caption node" text-anchor="middle" alignment-baseline="central" x="-900.5301513671875" y="67.80891680717468" font-size="50px" font-family="'Gill Sans', 'Gill Sans MT', Calibri, sans-serif">Race</text></g><g class="caption"><text class="caption node" text-anchor="middle" alignment-baseline="central" x="904.5874786376953" y="18.5505211353302" font-size="50px" font-family="'Gill Sans', 'Gill Sans MT', Calibri, sans-serif">Race</text></g><g class="caption"><text class="caption node" text-anchor="middle" alignment-baseline="central" x="1474.1563415527344" y="-6.4494788646698" font-size="50px" font-family="'Gill Sans', 'Gill Sans MT', Calibri, sans-serif">Side</text><text class="caption node" text-anchor="middle" alignment-baseline="central" x="1474.1563415527344" y="43.5505211353302" font-size="50px" font-family="'Gill Sans', 'Gill Sans MT', Calibri, sans-serif">Race</text></g><g class="caption"><text class="caption node" text-anchor="middle" alignment-baseline="central" x="459.3340148925781" y="-255.58566284179688" font-size="50px" font-family="'Gill Sans', 'Gill Sans MT', Calibri, sans-serif">finisher</text></g><g class="caption"><text class="caption node" text-anchor="middle" alignment-baseline="central" x="459.3340148925781" y="-653.416090965271" font-size="50px" font-family="'Gill Sans', 'Gill Sans MT', Calibri, sans-serif">Person</text></g><g class="caption"><text class="caption node" text-anchor="middle" alignment-baseline="central" x="904.5874786376953" y="-255.58566284179688" font-size="50px" font-family="'Gill Sans', 'Gill Sans MT', Calibri, sans-serif">finisher</text></g><g class="caption"><text class="caption node" text-anchor="middle" alignment-baseline="central" x="1294.9271392822266" y="-255.58566284179688" font-size="50px" font-family="'Gill Sans', 'Gill Sans MT', Calibri, sans-serif">finisher</text></g><g class="caption"><text class="caption node" text-anchor="middle" alignment-baseline="central" x="904.5874786376953" y="-624.2646627426147" font-size="50px" font-family="'Gill Sans', 'Gill Sans MT', Calibri, sans-serif">Person</text></g><g class="caption"><text class="caption node" text-anchor="middle" alignment-baseline="central" x="1294.9271392822266" y="-589.4621114730835" font-size="50px" font-family="'Gill Sans', 'Gill Sans MT', Calibri, sans-serif">Person</text></g><g class="caption"><text class="caption node" text-anchor="middle" alignment-baseline="central" x="904.5874786376953" y="-1025.724944114685" font-size="50px" font-family="'Gill Sans', 'Gill Sans MT', Calibri, sans-serif">Name</text></g><g class="caption"><text class="caption node" text-anchor="middle" alignment-baseline="central" x="1294.9271392822266" y="-1025.724944114685" font-size="50px" font-family="'Gill Sans', 'Gill Sans MT', Calibri, sans-serif">Name</text></g><g class="caption"><text class="caption node" text-anchor="middle" alignment-baseline="central" x="459.3340148925781" y="-960.1981067657471" font-size="50px" font-family="'Gill Sans', 'Gill Sans MT', Calibri, sans-serif">Competition</text></g></g><g class="layer properties"/><g class="layer overlay"><circle class="node overlay" r="156.35792797713694" stroke="none" fill="rgba(255, 255, 255, 0)" cx="-193.05633544921875" cy="413.8335876464844"/><circle class="node overlay" r="77.73655816335261" stroke="none" fill="rgba(255, 255, 255, 0)" cx="-193.05633544921875" cy="42.80891680717468"/><circle class="node overlay" r="114.25962520157903" stroke="none" fill="rgba(255, 255, 255, 0)" cx="-609.295654296875" cy="280.4852294921875"/><circle class="node overlay" r="78.65072016845528" stroke="none" fill="rgba(255, 255, 255, 0)" cx="-565.5807013511658" cy="515.4088439941406"/><circle class="node overlay" r="97.83177790126219" stroke="none" fill="rgba(255, 255, 255, 0)" cx="-586.938957452774" cy="-624.2646627426147"/><circle class="node overlay" r="89.32967966187545" stroke="none" fill="rgba(255, 255, 255, 0)" cx="-586.938957452774" cy="-1025.724944114685"/><circle class="node overlay" r="100.83047280851338" stroke="none" fill="rgba(255, 255, 255, 0)" cx="-586.938957452774" cy="-255.58566284179688"/><circle class="node overlay" r="100.83047280851338" stroke="none" fill="rgba(255, 255, 255, 0)" cx="48.137309551239014" cy="-255.58566284179688"/><circle class="node overlay" r="97.83177790126219" stroke="none" fill="rgba(255, 255, 255, 0)" cx="48.137309551239014" cy="-653.416090965271"/><circle class="node overlay" r="89.32967966187545" stroke="none" fill="rgba(255, 255, 255, 0)" cx="48.137309551239014" cy="-1025.724944114685"/><circle class="node overlay" r="107.42800078151909" stroke="none" fill="rgba(255, 255, 255, 0)" cx="-900.5301513671875" cy="42.80891680717468"/><circle class="node overlay" r="77.73655816335261" stroke="none" fill="rgba(255, 255, 255, 0)" cx="904.5874786376953" cy="18.5505211353302"/><circle class="node overlay" r="103.07499549915534" stroke="none" fill="rgba(255, 255, 255, 0)" cx="1474.1563415527344" cy="18.5505211353302"/><circle class="node overlay" r="100.83047280851338" stroke="none" fill="rgba(255, 255, 255, 0)" cx="459.3340148925781" cy="-255.58566284179688"/><circle class="node overlay" r="97.83177790126219" stroke="none" fill="rgba(255, 255, 255, 0)" cx="459.3340148925781" cy="-653.416090965271"/><circle class="node overlay" r="100.83047280851338" stroke="none" fill="rgba(255, 255, 255, 0)" cx="904.5874786376953" cy="-255.58566284179688"/><circle class="node overlay" r="100.83047280851338" stroke="none" fill="rgba(255, 255, 255, 0)" cx="1294.9271392822266" cy="-255.58566284179688"/><circle class="node overlay" r="97.83177790126219" stroke="none" fill="rgba(255, 255, 255, 0)" cx="904.5874786376953" cy="-624.2646627426147"/><circle class="node overlay" r="97.83177790126219" stroke="none" fill="rgba(255, 255, 255, 0)" cx="1294.9271392822266" cy="-589.4621114730835"/><circle class="node overlay" r="89.32967966187545" stroke="none" fill="rgba(255, 255, 255, 0)" cx="904.5874786376953" cy="-1025.724944114685"/><circle class="node overlay" r="89.32967966187545" stroke="none" fill="rgba(255, 255, 255, 0)" cx="1294.9271392822266" cy="-1025.724944114685"/><circle class="node overlay" r="154.54779891199277" stroke="none" fill="rgba(255, 255, 255, 0)" cx="459.3340148925781" cy="-960.1981067657471"/><circle class="node ring" r="161.35792797713694" fill="none" stroke="rgba(255, 255, 255, 0)" stroke-width="10px" cx="-193.05633544921875" cy="413.8335876464844"/><circle class="node ring" r="82.73655816335261" fill="none" stroke="rgba(255, 255, 255, 0)" stroke-width="10px" cx="-193.05633544921875" cy="42.80891680717468"/><circle class="node ring" r="119.25962520157903" fill="none" stroke="rgba(255, 255, 255, 0)" stroke-width="10px" cx="-609.295654296875" cy="280.4852294921875"/><circle class="node ring" r="83.65072016845528" fill="none" stroke="rgba(255, 255, 255, 0)" stroke-width="10px" cx="-565.5807013511658" cy="515.4088439941406"/><circle class="node ring" r="102.83177790126219" fill="none" stroke="rgba(255, 255, 255, 0)" stroke-width="10px" cx="-586.938957452774" cy="-624.2646627426147"/><circle class="node ring" r="94.32967966187545" fill="none" stroke="rgba(255, 255, 255, 0)" stroke-width="10px" cx="-586.938957452774" cy="-1025.724944114685"/><circle class="node ring" r="105.83047280851338" fill="none" stroke="rgba(255, 255, 255, 0)" stroke-width="10px" cx="-586.938957452774" cy="-255.58566284179688"/><circle class="node ring" r="105.83047280851338" fill="none" stroke="rgba(255, 255, 255, 0)" stroke-width="10px" cx="48.137309551239014" cy="-255.58566284179688"/><circle class="node ring" r="102.83177790126219" fill="none" stroke="rgba(255, 255, 255, 0)" stroke-width="10px" cx="48.137309551239014" cy="-653.416090965271"/><circle class="node ring" r="94.32967966187545" fill="none" stroke="rgba(255, 255, 255, 0)" stroke-width="10px" cx="48.137309551239014" cy="-1025.724944114685"/><circle class="node ring" r="112.42800078151909" fill="none" stroke="rgba(255, 255, 255, 0)" stroke-width="10px" cx="-900.5301513671875" cy="42.80891680717468"/><circle class="node ring" r="82.73655816335261" fill="none" stroke="rgba(255, 255, 255, 0)" stroke-width="10px" cx="904.5874786376953" cy="18.5505211353302"/><circle class="node ring" r="108.07499549915534" fill="none" stroke="rgba(255, 255, 255, 0)" stroke-width="10px" cx="1474.1563415527344" cy="18.5505211353302"/><circle class="node ring" r="105.83047280851338" fill="none" stroke="rgba(255, 255, 255, 0)" stroke-width="10px" cx="459.3340148925781" cy="-255.58566284179688"/><circle class="node ring" r="102.83177790126219" fill="none" stroke="rgba(255, 255, 255, 0)" stroke-width="10px" cx="459.3340148925781" cy="-653.416090965271"/><circle class="node ring" r="105.83047280851338" fill="none" stroke="rgba(255, 255, 255, 0)" stroke-width="10px" cx="904.5874786376953" cy="-255.58566284179688"/><circle class="node ring" r="105.83047280851338" fill="none" stroke="rgba(255, 255, 255, 0)" stroke-width="10px" cx="1294.9271392822266" cy="-255.58566284179688"/><circle class="node ring" r="102.83177790126219" fill="none" stroke="rgba(255, 255, 255, 0)" stroke-width="10px" cx="904.5874786376953" cy="-624.2646627426147"/><circle class="node ring" r="102.83177790126219" fill="none" stroke="rgba(255, 255, 255, 0)" stroke-width="10px" cx="1294.9271392822266" cy="-589.4621114730835"/><circle class="node ring" r="94.32967966187545" fill="none" stroke="rgba(255, 255, 255, 0)" stroke-width="10px" cx="904.5874786376953" cy="-1025.724944114685"/><circle class="node ring" r="94.32967966187545" fill="none" stroke="rgba(255, 255, 255, 0)" stroke-width="10px" cx="1294.9271392822266" cy="-1025.724944114685"/><circle class="node ring" r="159.54779891199277" fill="none" stroke="rgba(255, 255, 255, 0)" stroke-width="10px" cx="459.3340148925781" cy="-960.1981067657471"/><path class="relationship overlay" fill="rgba(255, 255, 255, 0)" stroke="rgba(255, 255, 255, 0)" stroke-width="10px" transform="translate(-609.295654296875,280.4852294921875) rotate(17.76362112698271)" d="M 125.25962520157903 4 L 237.71981702620621 4 L 237.71981702620621 16 L 269.7198170262062 0 L 237.71981702620621 -16 L 237.71981702620621 -4 L 125.25962520157903 -4 Z"/><path class="relationship overlay" fill="rgba(255, 255, 255, 0)" stroke="rgba(255, 255, 255, 0)" stroke-width="10px" transform="translate(-565.5807013511658,515.4088439941406) rotate(-15.251926560588526)" d="M 89.65072016845528 4 L 186.76632131671383 4 L 186.76632131671383 16 L 218.76632131671383 0 L 186.76632131671383 -16 L 186.76632131671383 -4 L 89.65072016845528 -4 Z"/><path class="relationship overlay" fill="rgba(255, 255, 255, 0)" stroke="rgba(255, 255, 255, 0)" stroke-width="10px" transform="translate(-586.938957452774,-624.2646627426147) rotate(-90)" d="M 108.83177790126219 4 L 269.13060171019487 4 L 269.13060171019487 16 L 301.13060171019487 0 L 269.13060171019487 -16 L 269.13060171019487 -4 L 108.83177790126219 -4 Z"/><path class="relationship overlay" fill="rgba(255, 255, 255, 0)" stroke="rgba(255, 255, 255, 0)" stroke-width="10px" transform="translate(-193.05633544921875,413.8335876464844) rotate(-90)" d="M 167.35792797713694 4 L 250.2881126759571 4 L 250.2881126759571 16 L 282.2881126759571 0 L 250.2881126759571 -16 L 250.2881126759571 -4 L 167.35792797713694 -4 Z"/><path class="relationship overlay" fill="rgba(255, 255, 255, 0)" stroke="rgba(255, 255, 255, 0)" stroke-width="10px" transform="translate(-586.938957452774,-624.2646627426147) rotate(90)" d="M 108.83177790126219 4 L 224.8485270923045 4 L 224.8485270923045 16 L 256.8485270923045 0 L 224.8485270923045 -16 L 224.8485270923045 -4 L 108.83177790126219 -4 Z"/><path class="relationship overlay" fill="rgba(255, 255, 255, 0)" stroke="rgba(255, 255, 255, 0)" stroke-width="10px" transform="translate(-193.05633544921875,42.80891680717468) rotate(-142.8534377117685)" d="M 88.73655816335261 4 L 350.3181334632053 4 L 350.3181334632053 16 L 382.3181334632053 0 L 350.3181334632053 -16 L 350.3181334632053 -4 L 88.73655816335261 -4 Z"/><path class="relationship overlay" fill="rgba(255, 255, 255, 0)" stroke="rgba(255, 255, 255, 0)" stroke-width="10px" transform="translate(-193.05633544921875,42.80891680717468) rotate(-51.05123924526432)" d="M 88.73655816335261 4 L 239.85390210463487 4 L 239.85390210463487 16 L 271.85390210463487 0 L 239.85390210463487 -16 L 239.85390210463487 -4 L 88.73655816335261 -4 Z"/><path class="relationship overlay" fill="rgba(255, 255, 255, 0)" stroke="rgba(255, 255, 255, 0)" stroke-width="10px" transform="translate(48.137309551239014,-653.416090965271) rotate(90)" d="M 108.83177790126219 4 L 253.99995531496074 4 L 253.99995531496074 16 L 285.99995531496074 0 L 253.99995531496074 -16 L 253.99995531496074 -4 L 108.83177790126219 -4 Z"/><path class="relationship overlay" fill="rgba(255, 255, 255, 0)" stroke="rgba(255, 255, 255, 0)" stroke-width="10px" transform="translate(48.137309551239014,-653.416090965271) rotate(-90)" d="M 108.83177790126219 4 L 239.97917348753862 4 L 239.97917348753862 16 L 271.9791734875386 0 L 239.97917348753862 -16 L 239.97917348753862 -4 L 108.83177790126219 -4 Z"/><path class="relationship overlay" fill="rgba(255, 255, 255, 0)" stroke="rgba(255, 255, 255, 0)" stroke-width="10px" transform="translate(48.137309551239014,-255.58566284179688) rotate(180)" d="M 111.83047280851338 4 L 491.2457941954997 4 L 491.2457941954997 16 L 523.2457941954997 0 L 491.2457941954997 -16 L 491.2457941954997 -4 L 111.83047280851338 -4 Z"/><path class="relationship overlay" fill="rgba(255, 255, 255, 0)" stroke="rgba(255, 255, 255, 0)" stroke-width="10px" transform="translate(-193.05633544921875,42.80891680717468) rotate(180)" d="M 88.73655816335261 4 L 557.0458151364496 4 L 557.0458151364496 16 L 589.0458151364496 0 L 557.0458151364496 -16 L 557.0458151364496 -4 L 88.73655816335261 -4 Z"/><path class="relationship overlay" fill="rgba(255, 255, 255, 0)" stroke="rgba(255, 255, 255, 0)" stroke-width="10px" transform="translate(-193.05633544921875,413.8335876464844) rotate(-19.804943200713858)" d="M 167.35792797713694 4 L 1045.912765872679 4 L 1045.912765872679 16 L 1077.912765872679 0 L 1045.912765872679 -16 L 1045.912765872679 -4 L 167.35792797713694 -4 Z"/><path class="relationship overlay" fill="rgba(255, 255, 255, 0)" stroke="rgba(255, 255, 255, 0)" stroke-width="10px" transform="translate(904.5874786376953,18.5505211353302) rotate(0)" d="M 88.73655816335261 4 L 423.49386741588376 4 L 423.49386741588376 16 L 455.49386741588376 0 L 423.49386741588376 -16 L 423.49386741588376 -4 L 88.73655816335261 -4 Z"/><path class="relationship overlay" fill="rgba(255, 255, 255, 0)" stroke="rgba(255, 255, 255, 0)" stroke-width="10px" transform="translate(-586.938957452774,-255.58566284179688) rotate(136.42245621178577)" d="M 111.83047280851338 4 L 282.4446849640171 4 L 282.4446849640171 16 L 314.4446849640171 0 L 282.4446849640171 -16 L 282.4446849640171 -4 L 111.83047280851338 -4 Z"/><path class="relationship overlay" fill="rgba(255, 255, 255, 0)" stroke="rgba(255, 255, 255, 0)" stroke-width="10px" transform="translate(48.137309551239014,-255.58566284179688) rotate(162.5395134050956)" d="M 111.83047280851338 4 L 844.0614544513157 4 L 844.0614544513157 16 L 876.0614544513157 0 L 844.0614544513157 -16 L 844.0614544513157 -4 L 111.83047280851338 -4 Z"/><path class="relationship overlay" fill="rgba(255, 255, 255, 0)" stroke="rgba(255, 255, 255, 0)" stroke-width="10px" transform="translate(-193.05633544921875,42.80891680717468) rotate(-24.57871989656434)" d="M 88.73655816335261 4 L 573.5623724185483 4 L 573.5623724185483 16 L 605.5623724185483 0 L 573.5623724185483 -16 L 573.5623724185483 -4 L 88.73655816335261 -4 Z"/><path class="relationship overlay" fill="rgba(255, 255, 255, 0)" stroke="rgba(255, 255, 255, 0)" stroke-width="10px" transform="translate(459.3340148925781,-653.416090965271) rotate(90)" d="M 108.83177790126219 4 L 253.99995531496074 4 L 253.99995531496074 16 L 285.99995531496074 0 L 253.99995531496074 -16 L 253.99995531496074 -4 L 108.83177790126219 -4 Z"/><path class="relationship overlay" fill="rgba(255, 255, 255, 0)" stroke="rgba(255, 255, 255, 0)" stroke-width="10px" transform="translate(904.5874786376953,18.5505211353302) rotate(-90)" d="M 88.73655816335261 4 L 130.3057111686137 4 L 130.3057111686137 16 L 162.3057111686137 0 L 130.3057111686137 -16 L 130.3057111686137 -4 L 88.73655816335261 -4 Z"/><path class="relationship overlay" fill="rgba(255, 255, 255, 0)" stroke="rgba(255, 255, 255, 0)" stroke-width="10px" transform="translate(904.5874786376953,18.5505211353302) rotate(-35.08043075742343)" d="M 88.73655816335261 4 L 333.1555836309061 4 L 333.1555836309061 16 L 365.1555836309061 0 L 333.1555836309061 -16 L 333.1555836309061 -4 L 88.73655816335261 -4 Z"/><path class="relationship overlay" fill="rgba(255, 255, 255, 0)" stroke="rgba(255, 255, 255, 0)" stroke-width="10px" transform="translate(904.5874786376953,-624.2646627426147) rotate(90)" d="M 108.83177790126219 4 L 224.8485270923045 4 L 224.8485270923045 16 L 256.8485270923045 0 L 224.8485270923045 -16 L 224.8485270923045 -4 L 108.83177790126219 -4 Z"/><path class="relationship overlay" fill="rgba(255, 255, 255, 0)" stroke="rgba(255, 255, 255, 0)" stroke-width="10px" transform="translate(1294.9271392822266,-589.4621114730835) rotate(90)" d="M 108.83177790126219 4 L 190.04597582277324 4 L 190.04597582277324 16 L 222.04597582277324 0 L 190.04597582277324 -16 L 190.04597582277324 -4 L 108.83177790126219 -4 Z"/><path class="relationship overlay" fill="rgba(255, 255, 255, 0)" stroke="rgba(255, 255, 255, 0)" stroke-width="10px" transform="translate(904.5874786376953,-624.2646627426147) rotate(-90)" d="M 108.83177790126219 4 L 269.13060171019487 4 L 269.13060171019487 16 L 301.13060171019487 0 L 269.13060171019487 -16 L 269.13060171019487 -4 L 108.83177790126219 -4 Z"/><path class="relationship overlay" fill="rgba(255, 255, 255, 0)" stroke="rgba(255, 255, 255, 0)" stroke-width="10px" transform="translate(1294.9271392822266,-589.4621114730835) rotate(-90)" d="M 108.83177790126219 4 L 303.9331529797261 4 L 303.9331529797261 16 L 335.9331529797261 0 L 303.9331529797261 -16 L 303.9331529797261 -4 L 108.83177790126219 -4 Z"/><path class="relationship overlay" fill="rgba(255, 255, 255, 0)" stroke="rgba(255, 255, 255, 0)" stroke-width="10px" transform="translate(904.5874786376953,-255.58566284179688) rotate(25.701731670439575)" d="M 111.83047280851338 4 L 486.03206581868176 4 L 486.03206581868176 16 L 518.0320658186818 0 L 486.03206581868176 -16 L 486.03206581868176 -4 L 111.83047280851338 -4 Z"/><path class="relationship overlay" fill="rgba(255, 255, 255, 0)" stroke="rgba(255, 255, 255, 0)" stroke-width="10px" transform="translate(1294.9271392822266,-255.58566284179688) rotate(56.82349235980999)" d="M 111.83047280851338 4 L 181.45172755113848 4 L 181.45172755113848 16 L 213.45172755113848 0 L 181.45172755113848 -16 L 181.45172755113848 -4 L 111.83047280851338 -4 Z"/><path class="relationship overlay" fill="rgba(255, 255, 255, 0)" stroke="rgba(255, 255, 255, 0)" stroke-width="10px" transform="translate(459.3340148925781,-255.58566284179688) rotate(180)" d="M 111.83047280851338 4 L 267.36623253282573 4 L 267.36623253282573 16 L 299.36623253282573 0 L 267.36623253282573 -16 L 267.36623253282573 -4 L 111.83047280851338 -4 Z"/><path class="relationship overlay" fill="rgba(255, 255, 255, 0)" stroke="rgba(255, 255, 255, 0)" stroke-width="10px" transform="translate(459.3340148925781,-960.1981067657471) rotate(162.19940712996598)" d="M 165.54779891199277 4 L 958.0487485772177 4 L 958.0487485772177 16 L 990.0487485772177 0 L 958.0487485772177 -16 L 958.0487485772177 -4 L 165.54779891199277 -4 Z"/><path class="relationship overlay" fill="rgba(255, 255, 255, 0)" stroke="rgba(255, 255, 255, 0)" stroke-width="10px" transform="translate(459.3340148925781,-960.1981067657471) rotate(143.27444090868934)" d="M 165.54779891199277 4 L 372.1964237623263 4 L 372.1964237623263 16 L 404.1964237623263 0 L 372.1964237623263 -16 L 372.1964237623263 -4 L 165.54779891199277 -4 Z"/><path class="relationship overlay" fill="rgba(255, 255, 255, 0)" stroke="rgba(255, 255, 255, 0)" stroke-width="10px" transform="translate(459.3340148925781,-960.1981067657471) rotate(37.03370922501039)" d="M 165.54779891199277 4 L 416.93333914198513 4 L 416.93333914198513 16 L 448.93333914198513 0 L 416.93333914198513 -16 L 416.93333914198513 -4 L 165.54779891199277 -4 Z"/><path class="relationship overlay" fill="rgba(255, 255, 255, 0)" stroke="rgba(255, 255, 255, 0)" stroke-width="10px" transform="translate(459.3340148925781,-960.1981067657471) rotate(23.9259059787771)" d="M 165.54779891199277 4 L 773.3132038893159 4 L 773.3132038893159 16 L 805.3132038893159 0 L 773.3132038893159 -16 L 773.3132038893159 -4 L 165.54779891199277 -4 Z"/></g></svg>