<svg xmlns="http://www.w3.org/2000/svg" class="graphdiagram" viewBox="-2174.8324381766406 -1340.7141114817912 5075.012866554316 2318.646503407003"><g class="layer relationships"><g class="related-pair"><g class="relationship" transform="translate(-560.3650103759766,863.6727667236328) rotate(-47.843837385917126)"><path class="relationship" d="M 125.25962520157903 4 L 284.63900208707855 4 L 284.63900208707855 16 L 316.63900208707855 0 L 284.63900208707855 -16 L 284.63900208707855 -4 L 125.25962520157903 -4 Z" fill="rgb(0, 0, 0)" stroke="rgb(51, 51, 51)" stroke-width="0px"/></g></g><g class="related-pair"><g class="relationship" transform="translate(-10.701946258544922,897.9087561035157) rotate(-119.7709410381038)"><path class="relationship" d="M 89.65072016845528 4 L 253.43458718927025 4 L 253.43458718927025 16 L 285.43458718927025 0 L 253.43458718927025 -16 L 253.43458718927025 -4 L 89.65072016845528 -4 Z" fill="rgb(0, 0, 0)" stroke="rgb(51, 51, 51)" stroke-width="0px"/></g></g><g class="related-pair"><g class="relationship" transform="translate(-716.0655280923843,-761.60288854599) rotate(-83.19026520572424)"><path class="relationship" d="M 108.83177790126219 4 L 360.9316365136386 4 L 360.9316365136386 16 L 392.9316365136386 0 L 360.9316365136386 -16 L 360.9316365136386 -4 L 108.83177790126219 -4 Z" fill="rgb(0, 0, 0)" stroke="rgb(51, 51, 51)" stroke-width="0px"/></g></g><g class="related-pair"><g class="relationship" transform="translate(-235.52872924804686,504.8769769287109) rotate(-90)"><path class="relationship" d="M 167.35792797713694 4 L 331.91354026060526 4 L 331.91354026060526 16 L 363.91354026060526 0 L 331.91354026060526 -16 L 331.91354026060526 -4 L 167.35792797713694 -4 Z" fill="rgb(0, 0, 0)" stroke="rgb(51, 51, 51)" stroke-width="0px"/></g></g><g class="related-pair"><g class="relationship" transform="translate(-716.0655280923843,-761.60288854599) rotate(86.68445534585216)"><path class="relationship" d="M 108.83177790126219 4 L 306.71204205387284 4 L 306.71204205387284 16 L 338.71204205387284 0 L 306.71204205387284 -16 L 306.71204205387284 -4 L 108.83177790126219 -4 Z" fill="rgb(0, 0, 0)" stroke="rgb(51, 51, 51)" stroke-width="0px"/></g></g><g class="related-pair"><g class="relationship" transform="translate(-235.52872924804686,52.22687850475311) rotate(-141.3050322436648)"><path class="relationship" d="M 88.73655816335261 4 L 438.4735313704796 4 L 438.4735313704796 16 L 470.4735313704796 0 L 438.4735313704796 -16 L 438.4735313704796 -4 L 88.73655816335261 -4 Z" fill="rgb(0, 0, 0)" stroke="rgb(51, 51, 51)" stroke-width="0px"/></g></g><g class="related-pair"><g class="relationship" transform="translate(-235.52872924804686,52.22687850475311) rotate(-44.77599416043472)"><path class="relationship" d="M 88.73655816335261 4 L 373.02646345860353 4 L 373.02646345860353 16 L 405.02646345860353 0 L 373.02646345860353 -16 L 373.02646345860353 -4 L 88.73655816335261 -4 Z" fill="rgb(0, 0, 0)" stroke="rgb(51, 51, 51)" stroke-width="0px"/></g></g><g class="related-pair"><g class="relationship" transform="translate(131.37038630485534,-703.4061185264587) rotate(90)"><path class="relationship" d="M 108.83177790126219 4 L 247.76113705095315 4 L 247.76113705095315 16 L 279.76113705095315 0 L 247.76113705095315 -16 L 247.76113705095315 -4 L 108.83177790126219 -4 Z" fill="rgb(0, 0, 0)" stroke="rgb(51, 51, 51)" stroke-width="0px"/></g></g><g class="related-pair"><g class="relationship" transform="translate(131.37038630485534,-703.4061185264587) rotate(-85.43924230374067)"><path class="relationship" d="M 108.83177790126219 4 L 417.38927831004816 4 L 417.38927831004816 16 L 449.38927831004816 0 L 417.38927831004816 -16 L 417.38927831004816 -4 L 108.83177790126219 -4 Z" fill="rgb(0, 0, 0)" stroke="rgb(51, 51, 51)" stroke-width="0px"/></g></g><g class="related-pair"><g class="relationship" transform="translate(131.37038630485534,-311.8145086669922) rotate(180)"><path class="relationship" d="M 111.83047280851338 4 L 677.5483691447641 4 L 677.5483691447641 16 L 709.5483691447641 0 L 677.5483691447641 -16 L 677.5483691447641 -4 L 111.83047280851338 -4 Z" fill="rgb(0, 0, 0)" stroke="rgb(51, 51, 51)" stroke-width="0px"/><text class="type" text-anchor="middle" baseline-shift="30%" alignment-baseline="alphabetic" transform="rotate(180)" x="-394.68942097663876" y="0" font-size="50px" font-family="'Gill Sans', 'Gill Sans MT', Calibri, sans-serif">after</text></g></g><g class="related-pair"><g class="relationship" transform="translate(-235.52872924804686,52.22687850475311) rotate(177.99177627559658)"><path class="relationship" d="M 88.73655816335261 4 L 1117.4841873404023 4 L 1117.4841873404023 16 L 1149.4841873404023 0 L 1117.4841873404023 -16 L 1117.4841873404023 -4 L 88.73655816335261 -4 Z" fill="rgb(0, 0, 0)" stroke="rgb(51, 51, 51)" stroke-width="0px"/></g></g><g class="related-pair"><g class="relationship" transform="translate(-235.52872924804686,504.8769769287109) rotate(-14.001041256877938)"><path class="relationship" d="M 167.35792797713694 4 L 1750.185899687202 4 L 1750.185899687202 16 L 1782.185899687202 0 L 1750.185899687202 -16 L 1750.185899687202 -4 L 167.35792797713694 -4 Z" fill="rgb(0, 0, 0)" stroke="rgb(51, 51, 51)" stroke-width="0px"/></g></g><g class="related-pair"><g class="relationship" transform="translate(1579.8111099243163,52.22687850475311) rotate(-17.89805978567344)"><path class="relationship" d="M 88.73655816335261 4 L 539.6635096462855 4 L 539.6635096462855 16 L 571.6635096462855 0 L 539.6635096462855 -16 L 539.6635096462855 -4 L 88.73655816335261 -4 Z" fill="rgb(0, 0, 0)" stroke="rgb(51, 51, 51)" stroke-width="0px"/></g></g><g class="related-pair"><g class="relationship" transform="translate(-690.0084556484222,-311.8145086669922) rotate(153.31404026135058)"><path class="relationship" d="M 111.83047280851338 4 L 759.1081788050485 4 L 759.1081788050485 16 L 791.1081788050485 0 L 759.1081788050485 -16 L 759.1081788050485 -4 L 111.83047280851338 -4 Z" fill="rgb(0, 0, 0)" stroke="rgb(51, 51, 51)" stroke-width="0px"/></g></g><g class="related-pair"><g class="relationship" transform="translate(131.37038630485534,-311.8145086669922) rotate(165.96492421258873)"><path class="relationship" d="M 111.83047280851338 4 L 1533.8856298368282 4 L 1533.8856298368282 16 L 1565.8856298368282 0 L 1533.8856298368282 -16 L 1533.8856298368282 -4 L 111.83047280851338 -4 Z" fill="rgb(0, 0, 0)" stroke="rgb(51, 51, 51)" stroke-width="0px"/></g></g><g class="related-pair"><g class="relationship" transform="translate(-235.52872924804686,52.22687850475311) rotate(-19.636572527973573)"><path class="relationship" d="M 88.73655816335261 4 L 759.6624632211723 4 L 759.6624632211723 16 L 791.6624632211723 0 L 759.6624632211723 -16 L 759.6624632211723 -4 L 88.73655816335261 -4 Z" fill="rgb(0, 0, 0)" stroke="rgb(51, 51, 51)" stroke-width="0px"/></g></g><g class="related-pair"><g class="relationship" transform="translate(511.9589190673828,-677.5409122276307) rotate(76.35360966557941)"><path class="relationship" d="M 108.83177790126219 4 L 294.6954187293601 4 L 294.6954187293601 16 L 326.6954187293601 0 L 294.6954187293601 -16 L 294.6954187293601 -4 L 108.83177790126219 -4 Z" fill="rgb(0, 0, 0)" stroke="rgb(51, 51, 51)" stroke-width="0px"/></g></g><g class="related-pair"><g class="relationship" transform="translate(1579.8111099243163,52.22687850475311) rotate(-131.9717540355026)"><path class="relationship" d="M 88.73655816335261 4 L 345.8182441174695 4 L 345.8182441174695 16 L 377.8182441174695 0 L 345.8182441174695 -16 L 345.8182441174695 -4 L 88.73655816335261 -4 Z" fill="rgb(0, 0, 0)" stroke="rgb(51, 51, 51)" stroke-width="0px"/></g></g><g class="related-pair"><g class="relationship" transform="translate(1579.8111099243163,52.22687850475311) rotate(-59.293283672327796)"><path class="relationship" d="M 88.73655816335261 4 L 367.2392570742468 4 L 367.2392570742468 16 L 399.2392570742468 0 L 367.2392570742468 -16 L 367.2392570742468 -4 L 88.73655816335261 -4 Z" fill="rgb(0, 0, 0)" stroke="rgb(51, 51, 51)" stroke-width="0px"/></g></g><g class="related-pair"><g class="relationship" transform="translate(1110.0928479003906,-761.60288854599) rotate(72.44891605156234)"><path class="relationship" d="M 108.83177790126219 4 L 327.91854688713147 4 L 327.91854688713147 16 L 359.91854688713147 0 L 327.91854688713147 -16 L 327.91854688713147 -4 L 108.83177790126219 -4 Z" fill="rgb(0, 0, 0)" stroke="rgb(51, 51, 51)" stroke-width="0px"/></g></g><g class="related-pair"><g class="relationship" transform="translate(1633.8637036132811,-797.1676309776306) rotate(63.21939577417103)"><path class="relationship" d="M 108.83177790126219 4 L 315.4089090399961 4 L 315.4089090399961 16 L 347.4089090399961 0 L 315.4089090399961 -16 L 315.4089090399961 -4 L 108.83177790126219 -4 Z" fill="rgb(0, 0, 0)" stroke="rgb(51, 51, 51)" stroke-width="0px"/></g></g><g class="related-pair"><g class="relationship" transform="translate(1110.0928479003906,-761.60288854599) rotate(-98.85621683874598)"><path class="relationship" d="M 108.83177790126219 4 L 329.6834680393448 4 L 329.6834680393448 16 L 361.6834680393448 0 L 329.6834680393448 -16 L 329.6834680393448 -4 L 108.83177790126219 -4 Z" fill="rgb(0, 0, 0)" stroke="rgb(51, 51, 51)" stroke-width="0px"/></g></g><g class="related-pair"><g class="relationship" transform="translate(1633.8637036132811,-797.1676309776306) rotate(-96.78638312248343)"><path class="relationship" d="M 108.83177790126219 4 L 325.09199128507964 4 L 325.09199128507964 16 L 357.09199128507964 0 L 325.09199128507964 -16 L 325.09199128507964 -4 L 108.83177790126219 -4 Z" fill="rgb(0, 0, 0)" stroke="rgb(51, 51, 51)" stroke-width="0px"/></g></g><g class="related-pair"><g class="relationship" transform="translate(1252.3515942382812,-311.8145086669922) rotate(8.890384258666282)"><path class="relationship" d="M 111.83047280851338 4 L 845.8537957193787 4 L 845.8537957193787 16 L 877.8537957193787 0 L 845.8537957193787 -16 L 845.8537957193787 -4 L 111.83047280851338 -4 Z" fill="rgb(0, 0, 0)" stroke="rgb(51, 51, 51)" stroke-width="0px"/></g></g><g class="related-pair"><g class="relationship" transform="translate(1840.7856518554688,-387.1870007324219) rotate(30.283666809841673)"><path class="relationship" d="M 111.83047280851338 4 L 307.38149536642834 4 L 307.38149536642834 16 L 339.38149536642834 0 L 307.38149536642834 -16 L 307.38149536642834 -4 L 111.83047280851338 -4 Z" fill="rgb(0, 0, 0)" stroke="rgb(51, 51, 51)" stroke-width="0px"/></g></g><g class="related-pair"><g class="relationship" transform="translate(615.4198931884765,-251.394476852417) rotate(-172.88502512020656)"><path class="relationship" d="M 111.83047280851338 4 L 343.97533420771214 4 L 343.97533420771214 16 L 375.97533420771214 0 L 343.97533420771214 -16 L 343.97533420771214 -4 L 111.83047280851338 -4 Z" fill="rgb(0, 0, 0)" stroke="rgb(51, 51, 51)" stroke-width="0px"/></g></g><g class="related-pair"><g class="relationship" transform="translate(649.8641529464721,-1144.5369075393676) rotate(164.33932944253544)"><path class="relationship" d="M 165.54779891199277 4 L 1277.7599027614056 4 L 1277.7599027614056 16 L 1309.7599027614056 0 L 1277.7599027614056 -16 L 1277.7599027614056 -4 L 165.54779891199277 -4 Z" fill="rgb(0, 0, 0)" stroke="rgb(51, 51, 51)" stroke-width="0px"/></g></g><g class="related-pair"><g class="relationship" transform="translate(649.8641529464721,-1144.5369075393676) rotate(139.60910107942948)"><path class="relationship" d="M 165.54779891199277 4 L 539.9267395345192 4 L 539.9267395345192 16 L 571.9267395345192 0 L 539.9267395345192 -16 L 539.9267395345192 -4 L 165.54779891199277 -4 Z" fill="rgb(0, 0, 0)" stroke="rgb(51, 51, 51)" stroke-width="0px"/></g></g><g class="related-pair"><g class="relationship" transform="translate(649.8641529464721,-1144.5369075393676) rotate(39.76220313570239)"><path class="relationship" d="M 165.54779891199277 4 L 457.8742556088465 4 L 457.8742556088465 16 L 489.8742556088465 0 L 457.8742556088465 -16 L 457.8742556088465 -4 L 165.54779891199277 -4 Z" fill="rgb(0, 0, 0)" stroke="rgb(51, 51, 51)" stroke-width="0px"/></g></g><g class="related-pair"><g class="relationship" transform="translate(649.8641529464721,-1144.5369075393676) rotate(19.44393449670229)"><path class="relationship" d="M 165.54779891199277 4 L 902.681772567301 4 L 902.681772567301 16 L 934.681772567301 0 L 902.681772567301 -16 L 902.681772567301 -4 L 165.54779891199277 -4 Z" fill="rgb(0, 0, 0)" stroke="rgb(51, 51, 51)" stroke-width="0px"/></g></g></g><g class="layer nodes"><circle class="node node-id-0" r="152.35792797713694" fill="rgb(255, 255, 255)" stroke="rgb(0, 0, 0)" stroke-width="8px" cx="-235.52872924804686" cy="504.8769769287109"/><circle class="node node-id-1" r="73.73655816335261" fill="rgb(255, 255, 255)" stroke="rgb(0, 0, 0)" stroke-width="8px" cx="-235.52872924804686" cy="52.22687850475311"/><circle class="node node-id-2" r="110.25962520157903" fill="rgb(255, 255, 255)" stroke="rgb(0, 0, 0)" stroke-width="8px" cx="-560.3650103759766" cy="863.6727667236328"/><circle class="node node-id-3" r="74.65072016845528" fill="rgb(255, 255, 255)" stroke="rgb(0, 0, 0)" stroke-width="8px" cx="-10.701946258544922" cy="897.9087561035157"/><circle class="node node-id-4" r="93.83177790126219" fill="rgb(255, 255, 255)" stroke="rgb(0, 0, 0)" stroke-width="8px" cx="-716.0655280923843" cy="-761.60288854599"/><circle class="node node-id-5" r="85.32967966187545" fill="rgb(255, 255, 255)" stroke="rgb(0, 0, 0)" stroke-width="8px" cx="-657.5782140541077" cy="-1251.3844318199158"/><circle class="node node-id-6" r="96.83047280851338" fill="rgb(255, 255, 255)" stroke="rgb(0, 0, 0)" stroke-width="8px" cx="-690.0084556484222" cy="-311.8145086669922"/><circle class="node node-id-7" r="96.83047280851338" fill="rgb(255, 255, 255)" stroke="rgb(0, 0, 0)" stroke-width="8px" cx="131.37038630485534" cy="-311.8145086669922"/><circle class="node node-id-8" r="93.83177790126219" fill="rgb(255, 255, 255)" stroke="rgb(0, 0, 0)" stroke-width="8px" cx="131.37038630485534" cy="-703.4061185264587"/><circle class="node node-id-9" r="85.32967966187545" fill="rgb(255, 255, 255)" stroke="rgb(0, 0, 0)" stroke-width="8px" cx="175.0819512939453" cy="-1251.3844318199158"/><circle class="node node-id-10" r="103.42800078151909" fill="rgb(255, 255, 255)" stroke="rgb(0, 0, 0)" stroke-width="8px" cx="-1502.6621752929686" cy="96.65824920654296"/><circle class="node node-id-11" r="73.73655816335261" fill="rgb(255, 255, 255)" stroke="rgb(0, 0, 0)" stroke-width="8px" cx="1579.8111099243163" cy="52.22687850475311"/><circle class="node node-id-12" r="99.07499549915534" fill="rgb(255, 255, 255)" stroke="rgb(0, 0, 0)" stroke-width="8px" cx="2232.363170776367" cy="-158.5172917985916"/><circle class="node node-id-13" r="96.83047280851338" fill="rgb(255, 255, 255)" stroke="rgb(0, 0, 0)" stroke-width="8px" cx="615.4198931884765" cy="-251.394476852417"/><circle class="node node-id-14" r="93.83177790126219" fill="rgb(255, 255, 255)" stroke="rgb(0, 0, 0)" stroke-width="8px" cx="511.9589190673828" cy="-677.5409122276307"/><circle class="node node-id-15" r="96.83047280851338" fill="rgb(255, 255, 255)" stroke="rgb(0, 0, 0)" stroke-width="8px" cx="1252.3515942382812" cy="-311.8145086669922"/><circle class="node node-id-16" r="96.83047280851338" fill="rgb(255, 255, 255)" stroke="rgb(0, 0, 0)" stroke-width="8px" cx="1840.7856518554688" cy="-387.1870007324219"/><circle class="node node-id-17" r="93.83177790126219" fill="rgb(255, 255, 255)" stroke="rgb(0, 0, 0)" stroke-width="8px" cx="1110.0928479003906" cy="-761.60288854599"/><circle class="node node-id-18" r="93.83177790126219" fill="rgb(255, 255, 255)" stroke="rgb(0, 0, 0)" stroke-width="8px" cx="1633.8637036132811" cy="-797.1676309776306"/><circle class="node node-id-19" r="85.32967966187545" fill="rgb(255, 255, 255)" stroke="rgb(0, 0, 0)" stroke-width="8px" cx="1038.9634375" cy="-1218.107823486328"/><circle class="node node-id-20" r="85.32967966187545" fill="rgb(255, 255, 255)" stroke="rgb(0, 0, 0)" stroke-width="8px" cx="1579.8111099243163" cy="-1251.3844318199158"/><circle class="node node-id-21" r="150.54779891199277" fill="rgb(255, 255, 255)" stroke="rgb(0, 0, 0)" stroke-width="8px" cx="649.8641529464721" cy="-1144.5369075393676"/><g class="caption"><text class="caption node" text-anchor="middle" alignment-baseline="central" x="-235.52872924804686" y="504.8769769287109" font-size="50px" font-family="'Gill Sans', 'Gill Sans MT', Calibri, sans-serif">Organization</text></g><g class="caption"><text class="caption node" text-anchor="middle" alignment-baseline="central" x="-235.52872924804686" y="52.22687850475311" font-size="50px" font-family="'Gill Sans', 'Gill Sans MT', Calibri, sans-serif">Race</text></g><g class="caption"><text class="caption node" text-anchor="middle" alignment-baseline="central" x="-560.3650103759766" y="863.6727667236328" font-size="50px" font-family="'Gill Sans', 'Gill Sans MT', Calibri, sans-serif">Location</text></g><g class="caption"><text class="caption node" text-anchor="middle" alignment-baseline="central" x="-10.701946258544922" y="897.9087561035157" font-size="50px" font-family="'Gill Sans', 'Gill Sans MT', Calibri, sans-serif">Date</text></g><g class="caption"><text class="caption node" text-anchor="middle" alignment-baseline="central" x="-716.0655280923843" y="-761.60288854599" font-size="50px" font-family="'Gill Sans', 'Gill Sans MT', Calibri, sans-serif">Person</text></g><g class="caption"><text class="caption node" text-anchor="middle" alignment-baseline="central" x="-657.5782140541077" y="-1251.3844318199158" font-size="50px" font-family="'Gill Sans', 'Gill Sans MT', Calibri, sans-serif">Name</text></g><g class="caption"><text class="caption node" text-anchor="middle" alignment-baseline="central" x="-690.0084556484222" y="-311.8145086669922" font-size="50px" font-family="'Gill Sans', 'Gill Sans MT', Calibri, sans-serif">finisher</text></g><g class="caption"><text class="caption node" text-anchor="middle" alignment-baseline="central" x="131.37038630485534" y="-311.8145086669922" font-size="50px" font-family="'Gill Sans', 'Gill Sans MT', Calibri, sans-serif">finisher</text></g><g class="caption"><text class="caption node" text-anchor="middle" alignment-baseline="central" x="131.37038630485534" y="-703.4061185264587" font-size="50px" font-family="'Gill Sans', 'Gill Sans MT', Calibri, sans-serif">Person</text></g><g class="caption"><text class="caption node" text-anchor="middle" alignment-baseline="central" x="175.0819512939453" y="-1251.3844318199158" font-size="50px" font-family="'Gill Sans', 'Gill Sans MT', Calibri, sans-serif">Name</text></g><g class="caption"><text class="caption node" text-anchor="middle" alignment-baseline="central" x="-1502.6621752929686" y="71.65824920654296" font-size="50px" font-family="'Gill Sans', 'Gill Sans MT', Calibri, sans-serif">Main</text><text class="caption node" text-anchor="middle" alignment-baseline="central" x="-1502.6621752929686" y="121.65824920654296" font-size="50px" font-family="'Gill Sans', 'Gill Sans MT', Calibri, sans-serif">Race</text></g><g class="caption"><text class="caption node" text-anchor="middle" alignment-baseline="central" x="1579.8111099243163" y="52.22687850475311" font-size="50px" font-family="'Gill Sans', 'Gill Sans MT', Calibri, sans-serif">Race</text></g><g class="caption"><text class="caption node" text-anchor="middle" alignment-baseline="central" x="2232.363170776367" y="-183.5172917985916" font-size="50px" font-family="'Gill Sans', 'Gill Sans MT', Calibri, sans-serif">Side</text><text class="caption node" text-anchor="middle" alignment-baseline="central" x="2232.363170776367" y="-133.5172917985916" font-size="50px" font-family="'Gill Sans', 'Gill Sans MT', Calibri, sans-serif">Race</text></g><g class="caption"><text class="caption node" text-anchor="middle" alignment-baseline="central" x="615.4198931884765" y="-251.394476852417" font-size="50px" font-family="'Gill Sans', 'Gill Sans MT', Calibri, sans-serif">finisher</text></g><g class="caption"><text class="caption node" text-anchor="middle" alignment-baseline="central" x="511.9589190673828" y="-677.5409122276307" font-size="50px" font-family="'Gill Sans', 'Gill Sans MT', Calibri, sans-serif">Person</text></g><g class="caption"><text class="caption node" text-anchor="middle" alignment-baseline="central" x="1252.3515942382812" y="-311.8145086669922" font-size="50px" font-family="'Gill Sans', 'Gill Sans MT', Calibri, sans-serif">finisher</text></g><g class="caption"><text class="caption node" text-anchor="middle" alignment-baseline="central" x="1840.7856518554688" y="-387.1870007324219" font-size="50px" font-family="'Gill Sans', 'Gill Sans MT', Calibri, sans-serif">finisher</text></g><g class="caption"><text class="caption node" text-anchor="middle" alignment-baseline="central" x="1110.0928479003906" y="-761.60288854599" font-size="50px" font-family="'Gill Sans', 'Gill Sans MT', Calibri, sans-serif">Person</text></g><g class="caption"><text class="caption node" text-anchor="middle" alignment-baseline="central" x="1633.8637036132811" y="-797.1676309776306" font-size="50px" font-family="'Gill Sans', 'Gill Sans MT', Calibri, sans-serif">Person</text></g><g class="caption"><text class="caption node" text-anchor="middle" alignment-baseline="central" x="1038.9634375" y="-1218.107823486328" font-size="50px" font-family="'Gill Sans', 'Gill Sans MT', Calibri, sans-serif">Name</text></g><g class="caption"><text class="caption node" text-anchor="middle" alignment-baseline="central" x="1579.8111099243163" y="-1251.3844318199158" font-size="50px" font-family="'Gill Sans', 'Gill Sans MT', Calibri, sans-serif">Name</text></g><g class="caption"><text class="caption node" text-anchor="middle" alignment-baseline="central" x="649.8641529464721" y="-1144.5369075393676" font-size="50px" font-family="'Gill Sans', 'Gill Sans MT', Calibri, sans-serif">Competition</text></g></g><g class="layer properties"/><g class="layer overlay"><circle class="node overlay" r="156.35792797713694" stroke="none" fill="rgba(255, 255, 255, 0)" cx="-235.52872924804686" cy="504.8769769287109"/><circle class="node overlay" r="77.73655816335261" stroke="none" fill="rgba(255, 255, 255, 0)" cx="-235.52872924804686" cy="52.22687850475311"/><circle class="node overlay" r="114.25962520157903" stroke="none" fill="rgba(255, 255, 255, 0)" cx="-560.3650103759766" cy="863.6727667236328"/><circle class="node overlay" r="78.65072016845528" stroke="none" fill="rgba(255, 255, 255, 0)" cx="-10.701946258544922" cy="897.9087561035157"/><circle class="node overlay" r="97.83177790126219" stroke="none" fill="rgba(255, 255, 255, 0)" cx="-716.0655280923843" cy="-761.60288854599"/><circle class="node overlay" r="89.32967966187545" stroke="none" fill="rgba(255, 255, 255, 0)" cx="-657.5782140541077" cy="-1251.3844318199158"/><circle class="node overlay" r="100.83047280851338" stroke="none" fill="rgba(255, 255, 255, 0)" cx="-690.0084556484222" cy="-311.8145086669922"/><circle class="node overlay" r="100.83047280851338" stroke="none" fill="rgba(255, 255, 255, 0)" cx="131.37038630485534" cy="-311.8145086669922"/><circle class="node overlay" r="97.83177790126219" stroke="none" fill="rgba(255, 255, 255, 0)" cx="131.37038630485534" cy="-703.4061185264587"/><circle class="node overlay" r="89.32967966187545" stroke="none" fill="rgba(255, 255, 255, 0)" cx="175.0819512939453" cy="-1251.3844318199158"/><circle class="node overlay" r="107.42800078151909" stroke="none" fill="rgba(255, 255, 255, 0)" cx="-1502.6621752929686" cy="96.65824920654296"/><circle class="node overlay" r="77.73655816335261" stroke="none" fill="rgba(255, 255, 255, 0)" cx="1579.8111099243163" cy="52.22687850475311"/><circle class="node overlay" r="103.07499549915534" stroke="none" fill="rgba(255, 255, 255, 0)" cx="2232.363170776367" cy="-158.5172917985916"/><circle class="node overlay" r="100.83047280851338" stroke="none" fill="rgba(255, 255, 255, 0)" cx="615.4198931884765" cy="-251.394476852417"/><circle class="node overlay" r="97.83177790126219" stroke="none" fill="rgba(255, 255, 255, 0)" cx="511.9589190673828" cy="-677.5409122276307"/><circle class="node overlay" r="100.83047280851338" stroke="none" fill="rgba(255, 255, 255, 0)" cx="1252.3515942382812" cy="-311.8145086669922"/><circle class="node overlay" r="100.83047280851338" stroke="none" fill="rgba(255, 255, 255, 0)" cx="1840.7856518554688" cy="-387.1870007324219"/><circle class="node overlay" r="97.83177790126219" stroke="none" fill="rgba(255, 255, 255, 0)" cx="1110.0928479003906" cy="-761.60288854599"/><circle class="node overlay" r="97.83177790126219" stroke="none" fill="rgba(255, 255, 255, 0)" cx="1633.8637036132811" cy="-797.1676309776306"/><circle class="node overlay" r="89.32967966187545" stroke="none" fill="rgba(255, 255, 255, 0)" cx="1038.9634375" cy="-1218.107823486328"/><circle class="node overlay" r="89.32967966187545" stroke="none" fill="rgba(255, 255, 255, 0)" cx="1579.8111099243163" cy="-1251.3844318199158"/><circle class="node overlay" r="154.54779891199277" stroke="none" fill="rgba(255, 255, 255, 0)" cx="649.8641529464721" cy="-1144.5369075393676"/><circle class="node ring" r="161.35792797713694" fill="none" stroke="rgba(255, 255, 255, 0)" stroke-width="10px" cx="-235.52872924804686" cy="504.8769769287109"/><circle class="node ring" r="82.73655816335261" fill="none" stroke="rgba(255, 255, 255, 0)" stroke-width="10px" cx="-235.52872924804686" cy="52.22687850475311"/><circle class="node ring" r="119.25962520157903" fill="none" stroke="rgba(255, 255, 255, 0)" stroke-width="10px" cx="-560.3650103759766" cy="863.6727667236328"/><circle class="node ring" r="83.65072016845528" fill="none" stroke="rgba(255, 255, 255, 0)" stroke-width="10px" cx="-10.701946258544922" cy="897.9087561035157"/><circle class="node ring" r="102.83177790126219" fill="none" stroke="rgba(255, 255, 255, 0)" stroke-width="10px" cx="-716.0655280923843" cy="-761.60288854599"/><circle class="node ring" r="94.32967966187545" fill="none" stroke="rgba(255, 255, 255, 0)" stroke-width="10px" cx="-657.5782140541077" cy="-1251.3844318199158"/><circle class="node ring" r="105.83047280851338" fill="none" stroke="rgba(255, 255, 255, 0)" stroke-width="10px" cx="-690.0084556484222" cy="-311.8145086669922"/><circle class="node ring" r="105.83047280851338" fill="none" stroke="rgba(255, 255, 255, 0)" stroke-width="10px" cx="131.37038630485534" cy="-311.8145086669922"/><circle class="node ring" r="102.83177790126219" fill="none" stroke="rgba(255, 255, 255, 0)" stroke-width="10px" cx="131.37038630485534" cy="-703.4061185264587"/><circle class="node ring" r="94.32967966187545" fill="none" stroke="rgba(255, 255, 255, 0)" stroke-width="10px" cx="175.0819512939453" cy="-1251.3844318199158"/><circle class="node ring" r="112.42800078151909" fill="none" stroke="rgba(255, 255, 255, 0)" stroke-width="10px" cx="-1502.6621752929686" cy="96.65824920654296"/><circle class="node ring" r="82.73655816335261" fill="none" stroke="rgba(255, 255, 255, 0)" stroke-width="10px" cx="1579.8111099243163" cy="52.22687850475311"/><circle class="node ring" r="108.07499549915534" fill="none" stroke="rgba(255, 255, 255, 0)" stroke-width="10px" cx="2232.363170776367" cy="-158.5172917985916"/><circle class="node ring" r="105.83047280851338" fill="none" stroke="rgba(255, 255, 255, 0)" stroke-width="10px" cx="615.4198931884765" cy="-251.394476852417"/><circle class="node ring" r="102.83177790126219" fill="none" stroke="rgba(255, 255, 255, 0)" stroke-width="10px" cx="511.9589190673828" cy="-677.5409122276307"/><circle class="node ring" r="105.83047280851338" fill="none" stroke="rgba(255, 255, 255, 0)" stroke-width="10px" cx="1252.3515942382812" cy="-311.8145086669922"/><circle class="node ring" r="105.83047280851338" fill="none" stroke="rgba(255, 255, 255, 0)" stroke-width="10px" cx="1840.7856518554688" cy="-387.1870007324219"/><circle class="node ring" r="102.83177790126219" fill="none" stroke="rgba(255, 255, 255, 0)" stroke-width="10px" cx="1110.0928479003906" cy="-761.60288854599"/><circle class="node ring" r="102.83177790126219" fill="none" stroke="rgba(255, 255, 255, 0)" stroke-width="10px" cx="1633.8637036132811" cy="-797.1676309776306"/><circle class="node ring" r="94.32967966187545" fill="none" stroke="rgba(255, 255, 255, 0)" stroke-width="10px" cx="1038.9634375" cy="-1218.107823486328"/><circle class="node ring" r="94.32967966187545" fill="none" stroke="rgba(255, 255, 255, 0)" stroke-width="10px" cx="1579.8111099243163" cy="-1251.3844318199158"/><circle class="node ring" r="159.54779891199277" fill="none" stroke="rgba(255, 255, 255, 0)" stroke-width="10px" cx="649.8641529464721" cy="-1144.5369075393676"/><path class="relationship overlay" fill="rgba(255, 255, 255, 0)" stroke="rgba(255, 255, 255, 0)" stroke-width="10px" transform="translate(-560.3650103759766,863.6727667236328) rotate(-47.843837385917126)" d="M 125.25962520157903 4 L 284.63900208707855 4 L 284.63900208707855 16 L 316.63900208707855 0 L 284.63900208707855 -16 L 284.63900208707855 -4 L 125.25962520157903 -4 Z"/><path class="relationship overlay" fill="rgba(255, 255, 255, 0)" stroke="rgba(255, 255, 255, 0)" stroke-width="10px" transform="translate(-10.701946258544922,897.9087561035157) rotate(-119.7709410381038)" d="M 89.65072016845528 4 L 253.43458718927025 4 L 253.43458718927025 16 L 285.43458718927025 0 L 253.43458718927025 -16 L 253.43458718927025 -4 L 89.65072016845528 -4 Z"/><path class="relationship overlay" fill="rgba(255, 255, 255, 0)" stroke="rgba(255, 255, 255, 0)" stroke-width="10px" transform="translate(-716.0655280923843,-761.60288854599) rotate(-83.19026520572424)" d="M 108.83177790126219 4 L 360.9316365136386 4 L 360.9316365136386 16 L 392.9316365136386 0 L 360.9316365136386 -16 L 360.9316365136386 -4 L 108.83177790126219 -4 Z"/><path class="relationship overlay" fill="rgba(255, 255, 255, 0)" stroke="rgba(255, 255, 255, 0)" stroke-width="10px" transform="translate(-235.52872924804686,504.8769769287109) rotate(-90)" d="M 167.35792797713694 4 L 331.91354026060526 4 L 331.91354026060526 16 L 363.91354026060526 0 L 331.91354026060526 -16 L 331.91354026060526 -4 L 167.35792797713694 -4 Z"/><path class="relationship overlay" fill="rgba(255, 255, 255, 0)" stroke="rgba(255, 255, 255, 0)" stroke-width="10px" transform="translate(-716.0655280923843,-761.60288854599) rotate(86.68445534585216)" d="M 108.83177790126219 4 L 306.71204205387284 4 L 306.71204205387284 16 L 338.71204205387284 0 L 306.71204205387284 -16 L 306.71204205387284 -4 L 108.83177790126219 -4 Z"/><path class="relationship overlay" fill="rgba(255, 255, 255, 0)" stroke="rgba(255, 255, 255, 0)" stroke-width="10px" transform="translate(-235.52872924804686,52.22687850475311) rotate(-141.3050322436648)" d="M 88.73655816335261 4 L 438.4735313704796 4 L 438.4735313704796 16 L 470.4735313704796 0 L 438.4735313704796 -16 L 438.4735313704796 -4 L 88.73655816335261 -4 Z"/><path class="relationship overlay" fill="rgba(255, 255, 255, 0)" stroke="rgba(255, 255, 255, 0)" stroke-width="10px" transform="translate(-235.52872924804686,52.22687850475311) rotate(-44.77599416043472)" d="M 88.73655816335261 4 L 373.02646345860353 4 L 373.02646345860353 16 L 405.02646345860353 0 L 373.02646345860353 -16 L 373.02646345860353 -4 L 88.73655816335261 -4 Z"/><path class="relationship overlay" fill="rgba(255, 255, 255, 0)" stroke="rgba(255, 255, 255, 0)" stroke-width="10px" transform="translate(131.37038630485534,-703.4061185264587) rotate(90)" d="M 108.83177790126219 4 L 247.76113705095315 4 L 247.76113705095315 16 L 279.76113705095315 0 L 247.76113705095315 -16 L 247.76113705095315 -4 L 108.83177790126219 -4 Z"/><path class="relationship overlay" fill="rgba(255, 255, 255, 0)" stroke="rgba(255, 255, 255, 0)" stroke-width="10px" transform="translate(131.37038630485534,-703.4061185264587) rotate(-85.43924230374067)" d="M 108.83177790126219 4 L 417.38927831004816 4 L 417.38927831004816 16 L 449.38927831004816 0 L 417.38927831004816 -16 L 417.38927831004816 -4 L 108.83177790126219 -4 Z"/><path class="relationship overlay" fill="rgba(255, 255, 255, 0)" stroke="rgba(255, 255, 255, 0)" stroke-width="10px" transform="translate(131.37038630485534,-311.8145086669922) rotate(180)" d="M 111.83047280851338 4 L 677.5483691447641 4 L 677.5483691447641 16 L 709.5483691447641 0 L 677.5483691447641 -16 L 677.5483691447641 -4 L 111.83047280851338 -4 Z"/><path class="relationship overlay" fill="rgba(255, 255, 255, 0)" stroke="rgba(255, 255, 255, 0)" stroke-width="10px" transform="translate(-235.52872924804686,52.22687850475311) rotate(177.99177627559658)" d="M 88.73655816335261 4 L 1117.4841873404023 4 L 1117.4841873404023 16 L 1149.4841873404023 0 L 1117.4841873404023 -16 L 1117.4841873404023 -4 L 88.73655816335261 -4 Z"/><path class="relationship overlay" fill="rgba(255, 255, 255, 0)" stroke="rgba(255, 255, 255, 0)" stroke-width="10px" transform="translate(-235.52872924804686,504.8769769287109) rotate(-14.001041256877938)" d="M 167.35792797713694 4 L 1750.185899687202 4 L 1750.185899687202 16 L 1782.185899687202 0 L 1750.185899687202 -16 L 1750.185899687202 -4 L 167.35792797713694 -4 Z"/><path class="relationship overlay" fill="rgba(255, 255, 255, 0)" stroke="rgba(255, 255, 255, 0)" stroke-width="10px" transform="translate(1579.8111099243163,52.22687850475311) rotate(-17.89805978567344)" d="M 88.73655816335261 4 L 539.6635096462855 4 L 539.6635096462855 16 L 571.6635096462855 0 L 539.6635096462855 -16 L 539.6635096462855 -4 L 88.73655816335261 -4 Z"/><path class="relationship overlay" fill="rgba(255, 255, 255, 0)" stroke="rgba(255, 255, 255, 0)" stroke-width="10px" transform="translate(-690.0084556484222,-311.8145086669922) rotate(153.31404026135058)" d="M 111.83047280851338 4 L 759.1081788050485 4 L 759.1081788050485 16 L 791.1081788050485 0 L 759.1081788050485 -16 L 759.1081788050485 -4 L 111.83047280851338 -4 Z"/><path class="relationship overlay" fill="rgba(255, 255, 255, 0)" stroke="rgba(255, 255, 255, 0)" stroke-width="10px" transform="translate(131.37038630485534,-311.8145086669922) rotate(165.96492421258873)" d="M 111.83047280851338 4 L 1533.8856298368282 4 L 1533.8856298368282 16 L 1565.8856298368282 0 L 1533.8856298368282 -16 L 1533.8856298368282 -4 L 111.83047280851338 -4 Z"/><path class="relationship overlay" fill="rgba(255, 255, 255, 0)" stroke="rgba(255, 255, 255, 0)" stroke-width="10px" transform="translate(-235.52872924804686,52.22687850475311) rotate(-19.636572527973573)" d="M 88.73655816335261 4 L 759.6624632211723 4 L 759.6624632211723 16 L 791.6624632211723 0 L 759.6624632211723 -16 L 759.6624632211723 -4 L 88.73655816335261 -4 Z"/><path class="relationship overlay" fill="rgba(255, 255, 255, 0)" stroke="rgba(255, 255, 255, 0)" stroke-width="10px" transform="translate(511.9589190673828,-677.5409122276307) rotate(76.35360966557941)" d="M 108.83177790126219 4 L 294.6954187293601 4 L 294.6954187293601 16 L 326.6954187293601 0 L 294.6954187293601 -16 L 294.6954187293601 -4 L 108.83177790126219 -4 Z"/><path class="relationship overlay" fill="rgba(255, 255, 255, 0)" stroke="rgba(255, 255, 255, 0)" stroke-width="10px" transform="translate(1579.8111099243163,52.22687850475311) rotate(-131.9717540355026)" d="M 88.73655816335261 4 L 345.8182441174695 4 L 345.8182441174695 16 L 377.8182441174695 0 L 345.8182441174695 -16 L 345.8182441174695 -4 L 88.73655816335261 -4 Z"/><path class="relationship overlay" fill="rgba(255, 255, 255, 0)" stroke="rgba(255, 255, 255, 0)" stroke-width="10px" transform="translate(1579.8111099243163,52.22687850475311) rotate(-59.293283672327796)" d="M 88.73655816335261 4 L 367.2392570742468 4 L 367.2392570742468 16 L 399.2392570742468 0 L 367.2392570742468 -16 L 367.2392570742468 -4 L 88.73655816335261 -4 Z"/><path class="relationship overlay" fill="rgba(255, 255, 255, 0)" stroke="rgba(255, 255, 255, 0)" stroke-width="10px" transform="translate(1110.0928479003906,-761.60288854599) rotate(72.44891605156234)" d="M 108.83177790126219 4 L 327.91854688713147 4 L 327.91854688713147 16 L 359.91854688713147 0 L 327.91854688713147 -16 L 327.91854688713147 -4 L 108.83177790126219 -4 Z"/><path class="relationship overlay" fill="rgba(255, 255, 255, 0)" stroke="rgba(255, 255, 255, 0)" stroke-width="10px" transform="translate(1633.8637036132811,-797.1676309776306) rotate(63.21939577417103)" d="M 108.83177790126219 4 L 315.4089090399961 4 L 315.4089090399961 16 L 347.4089090399961 0 L 315.4089090399961 -16 L 315.4089090399961 -4 L 108.83177790126219 -4 Z"/><path class="relationship overlay" fill="rgba(255, 255, 255, 0)" stroke="rgba(255, 255, 255, 0)" stroke-width="10px" transform="translate(1110.0928479003906,-761.60288854599) rotate(-98.85621683874598)" d="M 108.83177790126219 4 L 329.6834680393448 4 L 329.6834680393448 16 L 361.6834680393448 0 L 329.6834680393448 -16 L 329.6834680393448 -4 L 108.83177790126219 -4 Z"/><path class="relationship overlay" fill="rgba(255, 255, 255, 0)" stroke="rgba(255, 255, 255, 0)" stroke-width="10px" transform="translate(1633.8637036132811,-797.1676309776306) rotate(-96.78638312248343)" d="M 108.83177790126219 4 L 325.09199128507964 4 L 325.09199128507964 16 L 357.09199128507964 0 L 325.09199128507964 -16 L 325.09199128507964 -4 L 108.83177790126219 -4 Z"/><path class="relationship overlay" fill="rgba(255, 255, 255, 0)" stroke="rgba(255, 255, 255, 0)" stroke-width="10px" transform="translate(1252.3515942382812,-311.8145086669922) rotate(8.890384258666282)" d="M 111.83047280851338 4 L 845.8537957193787 4 L 845.8537957193787 16 L 877.8537957193787 0 L 845.8537957193787 -16 L 845.8537957193787 -4 L 111.83047280851338 -4 Z"/><path class="relationship overlay" fill="rgba(255, 255, 255, 0)" stroke="rgba(255, 255, 255, 0)" stroke-width="10px" transform="translate(1840.7856518554688,-387.1870007324219) rotate(30.283666809841673)" d="M 111.83047280851338 4 L 307.38149536642834 4 L 307.38149536642834 16 L 339.38149536642834 0 L 307.38149536642834 -16 L 307.38149536642834 -4 L 111.83047280851338 -4 Z"/><path class="relationship overlay" fill="rgba(255, 255, 255, 0)" stroke="rgba(255, 255, 255, 0)" stroke-width="10px" transform="translate(615.4198931884765,-251.394476852417) rotate(-172.88502512020656)" d="M 111.83047280851338 4 L 343.97533420771214 4 L 343.97533420771214 16 L 375.97533420771214 0 L 343.97533420771214 -16 L 343.97533420771214 -4 L 111.83047280851338 -4 Z"/><path class="relationship overlay" fill="rgba(255, 255, 255, 0)" stroke="rgba(255, 255, 255, 0)" stroke-width="10px" transform="translate(649.8641529464721,-1144.5369075393676) rotate(164.33932944253544)" d="M 165.54779891199277 4 L 1277.7599027614056 4 L 1277.7599027614056 16 L 1309.7599027614056 0 L 1277.7599027614056 -16 L 1277.7599027614056 -4 L 165.54779891199277 -4 Z"/><path class="relationship overlay" fill="rgba(255, 255, 255, 0)" stroke="rgba(255, 255, 255, 0)" stroke-width="10px" transform="translate(649.8641529464721,-1144.5369075393676) rotate(139.60910107942948)" d="M 165.54779891199277 4 L 539.9267395345192 4 L 539.9267395345192 16 L 571.9267395345192 0 L 539.9267395345192 -16 L 539.9267395345192 -4 L 165.54779891199277 -4 Z"/><path class="relationship overlay" fill="rgba(255, 255, 255, 0)" stroke="rgba(255, 255, 255, 0)" stroke-width="10px" transform="translate(649.8641529464721,-1144.5369075393676) rotate(39.76220313570239)" d="M 165.54779891199277 4 L 457.8742556088465 4 L 457.8742556088465 16 L 489.8742556088465 0 L 457.8742556088465 -16 L 457.8742556088465 -4 L 165.54779891199277 -4 Z"/><path class="relationship overlay" fill="rgba(255, 255, 255, 0)" stroke="rgba(255, 255, 255, 0)" stroke-width="10px" transform="translate(649.8641529464721,-1144.5369075393676) rotate(19.44393449670229)" d="M 165.54779891199277 4 L 902.681772567301 4 L 902.681772567301 16 L 934.681772567301 0 L 902.681772567301 -16 L 902.681772567301 -4 L 165.54779891199277 -4 Z"/></g></svg>